# xmcd CD database file
#
# Track frame offsets:
#	150
#	37144
#	71524
#	104064
#	107062
#	129189
#	149025
#	166959
#	176843
#	188328
#	201932
#	232491
#	273700
#
# Disc length: 4104 seconds
#
# Revision: 0
# Processed by: cddbd v1.5.1PL0 Copyright (c) Steve Scherf et al.
# Submitted via: CDex 1.51
#
DISCID=cf10060d
DTITLE=Quintet Of The Year, The - Quintet Of The Year, The
DYEAR=1953
DGENRE=Jazz
TTITLE0=Perdido
TTITLE1=Salt Peanuts
TTITLE2=All The Things You Are
TTITLE3=52nd Street Theme
TTITLE4=Cherokee
TTITLE5=Embraceable You
TTITLE6=Hallelujah!
TTITLE7=Sure Thing
TTITLE8=Lullaby Of Birdland
TTITLE9=I've Got You Under My Skin
TTITLE10=Wee (Allen's Alley)
TTITLE11=Hot House
TTITLE12=A Night In Tunisia
EXTD=YEAR: 1953
EXTT0=
EXTT1=
EXTT2=
EXTT3=
EXTT4=
EXTT5=
EXTT6=
EXTT7=
EXTT8=
EXTT9=
EXTT10=
EXTT11=
EXTT12=
PLAYORDER=
